PathFileType	4	(x/y/z)	S09_P20_T14
DataRate	CameraRate	NumFrames	NumMarkers	Units	OrigDataRate	OrigDataStartFrame	OrigNumFrames
240	240	4	51	mm	240	349	398
Frame#	Time	Sternum			R.Acromium			L.Acromium			Top.Head			R.ASIS			L.ASIS			R.PSIS			L.PSIS			R.Great.Tro			L.Great.Tro			R.Iliac.Crest			L.Iliac.Crest			V.Sacral			R.Thigh.Upper.Post			R.Thigh.Lower.Ant			R.Thigh.Lower.Post			R.Thigh.Upper.Ant			R.Knee.Lat			R.Knee.Med			R.Shank.Upper.Post			R.Shank.Lower.Ant			R.Shank.Lower.Post			R.Shank.Upper.Ant			R.Ankle.Lat			R.Ankle.Med			R.Heel.Upper			R.Heel.Med			R.Heel.Lat			R.Toe.Lat			R.Toe.Med			R.Toe.Tip			L.Thigh.Upper.Post			L.Thigh.Lower.Ant			L.Thigh.Lower.Post			L.Thigh.Upper.Ant			L.Knee.Lat			L.Knee.Med			L.Shank.Upper.Post			L.Shank.Lower.Ant			L.Shank.Lower.Post			L.Shank.Upper.Ant			L.Ankle.Lat			L.Ankle.Med			L.Heel.Upper			L.Heel.Med			L.Heel.Lat			L.Toe.Lat			L.Toe.Med			L.Toe.Tip			Cervical.Spine			Back			
		X1	Y1	Z1	X2	Y2	Z2	X3	Y3	Z3	X4	Y4	Z4	X5	Y5	Z5	X6	Y6	Z6	X7	Y7	Z7	X8	Y8	Z8	X9	Y9	Z9	X10	Y10	Z10	X11	Y11	Z11	X12	Y12	Z12	X13	Y13	Z13	X14	Y14	Z14	X15	Y15	Z15	X16	Y16	Z16	X17	Y17	Z17	X18	Y18	Z18	X19	Y19	Z19	X20	Y20	Z20	X21	Y21	Z21	X22	Y22	Z22	X23	Y23	Z23	X24	Y24	Z24	X25	Y25	Z25	X26	Y26	Z26	X27	Y27	Z27	X28	Y28	Z28	X29	Y29	Z29	X30	Y30	Z30	X31	Y31	Z31	X32	Y32	Z32	X33	Y33	Z33	X34	Y34	Z34	X35	Y35	Z35	X36	Y36	Z36	X37	Y37	Z37	X38	Y38	Z38	X39	Y39	Z39	X40	Y40	Z40	X41	Y41	Z41	X42	Y42	Z42	X43	Y43	Z43	X44	Y44	Z44	X45	Y45	Z45	X46	Y46	Z46	X47	Y47	Z47	X48	Y48	Z48	X49	Y49	Z49	X50	Y50	Z50	X51	Y51	Z51	

349	1.45	523.43	1173.1	315.91	376.7	1426.4	464.78	395.01	1425.8	151.18	412.98	1730.1	314.8	464.96	1004.6	413.62	448.82	1009.4	169.45	240.04	1030.3	353.16	242.27	1039.7	264.17	387.39	918.35	490.36	360.42	925.87	104	379.9	1081.8	463.01	350.57	1108.8	144.61	222.47	999.89	304.89	446.14	676.88	470.26	544.32	600.08	435.7	465.82	588.62	441.7	518.17	683.34	463.94	545.98	527.43	424.66	544.79	515.39	297.71	546.59	343.23	431.42	634.05	316.27	426.31	577.04	272.68	422.25	599.32	381.49	435.1	691.76	111	410.38	717.92	139.15	329.54	648.17	65.571	351.43	675.4	45.058	323.32	662.29	37.593	386.29	805.06	94.67	455.77	850.93	131.95	358.96	879.57	164.82	408.19	250.47	691.61	170.33	308.57	579.46	164.95	246.41	601.94	187.49	312.92	666.37	142.29	274.9	501.42	180.38	307.71	512.87	308.78	190.73	384.63	176.93	227.54	281.31	191.72	170.07	311.21	188.29	247.87	356.12	181.82	132.53	114.45	221.73	151.79	108.53	312.24	54.686	82.559	277.19	67.096	56.552	308.82	51.735	54.663	248.86	221.3	41.587	184.7	265.07	38.728	290.81	314.9	48.587	228.43	305.26	1468.3	313.86	258.62	1206	297.1
350	1.4542	529.1	1172.2	316.03	382.36	1425.7	465.13	400.26	1425	151.45	418.21	1729.4	314.99	470.73	1003.8	413.9	454.29	1008.5	169.68	245.71	1029.5	353.59	247.86	1038.8	264.6	393.14	917.72	490.63	365.69	925.06	104.22	385.62	1081.1	463.36	356.01	1108	144.93	228.1	999.06	305.34	452.28	676.4	470.08	550.49	599.74	435.24	472.02	588.17	441.35	524.29	682.91	463.73	552.26	527.05	424.01	550.72	515.01	297.34	552.29	342.76	431.01	639.54	315.39	425.21	582.31	272.08	421.71	605.26	380.77	434.21	696.25	110.07	409.21	721.72	137.98	328.11	652.02	65.137	350.78	678.86	44.44	322.5	666.26	37.196	385.63	809.81	93.553	453.77	854.95	130.51	356.52	884.06	163.42	405.43	255.72	690.86	170.7	313.71	578.65	165.32	251.58	601.2	187.91	318.12	665.56	142.62	279.83	500.71	180.81	312.93	512.07	309.15	194.68	384.82	177.25	230.39	281.11	192	173.24	311.6	188.62	251.53	355.69	182.14	133.36	115.4	221.91	152.58	109.22	312.4	55.204	83.779	277.28	67.438	57.717	308.94	52.029	55.899	248.98	221.49	41.63	184.76	265.3	38.629	290.76	315.22	48.147	228.39	310.75	1467.6	314.26	264.16	1205.2	297.62
351	1.4583	534.78	1171.4	316.18	388.03	1425	465.5	405.52	1424.2	151.74	423.44	1728.7	315.19	476.51	1003.1	414.19	459.78	1007.7	169.92	251.38	1028.7	354	253.47	1037.9	265	398.94	917.15	490.89	371	924.26	104.46	391.33	1080.4	463.7	361.46	1107.3	145.24	233.76	998.24	305.79	458.56	675.99	469.91	556.81	599.5	434.74	478.38	587.79	441.03	530.54	682.58	463.47	558.63	526.69	423.35	556.81	514.73	297	557.84	342.3	430.53	644.84	314.41	424.12	587.33	271.46	421.12	611.07	379.99	433.31	700.29	109.02	408.05	725.14	136.65	326.7	655.37	64.767	350.12	681.77	43.826	321.68	669.66	36.831	384.95	814.03	92.122	451.78	858.56	128.67	354.13	888.16	161.57	402.73	261.08	690.07	171.09	319	577.82	165.72	256.9	600.42	188.34	323.46	664.72	142.97	284.93	499.97	181.27	318.29	511.26	309.55	198.76	385.04	177.58	233.34	280.93	192.3	176.53	312.03	188.97	255.31	355.27	182.49	134.25	116.43	222.09	153.44	109.99	312.56	55.782	85.14	277.37	67.82	59.024	309.05	52.36	57.276	249.11	221.69	41.684	184.82	265.55	38.549	290.7	315.55	47.709	228.34	316.25	1466.9	314.68	269.71	1204.3	298.14
352	1.4625	540.46	1170.7	316.36	393.71	1424.3	465.88	410.79	1423.4	152.05	428.67	1728.1	315.38	482.32	1002.5	414.49	465.29	1006.9	170.17	257.07	1028	354.4	259.09	1037.1	265.4	404.79	916.64	491.16	376.37	923.45	104.72	397.05	1079.8	464.04	366.93	1106.5	145.54	239.44	997.44	306.23	464.98	675.64	469.75	563.26	599.34	434.2	484.88	587.47	440.72	536.92	682.33	463.16	565.07	526.36	422.68	563.02	514.54	296.69	563.23	341.86	429.98	649.96	313.36	423.03	592.13	270.83	420.48	616.77	379.17	432.41	703.92	107.9	406.9	728.23	135.19	325.31	658.3	64.473	349.45	684.21	43.231	320.87	672.55	36.517	384.28	817.79	90.418	449.83	861.8	126.45	351.82	891.92	159.29	400.12	266.57	689.24	171.48	324.46	576.98	166.15	262.38	599.6	188.8	328.93	663.87	143.35	290.2	499.23	181.74	323.8	510.45	309.97	202.99	385.28	177.93	236.4	280.79	192.61	179.94	312.51	189.34	259.22	354.87	182.84	135.21	117.55	222.26	154.37	110.85	312.72	56.428	86.651	277.46	68.25	60.481	309.17	52.737	58.803	249.24	221.9	41.752	184.88	265.82	38.491	290.65	315.89	47.274	228.29	321.74	1466.2	315.11	275.28	1203.5	298.66
